<svg width="82" height="82" viewBox="0 0 82 60" fill="none" xmlns="http://www.w3.org/2000/svg" class="mb-6 md:mb-10  svg-img-logo-notext-svg-v-30eec20e1b0952475cede0525ffc25e27ab2e03b57d6c89c494c19a37f2fbf596643" src="/img/logo-noText.svg" title="FjernvarmeFyn">
<path d="M58.7321 46.8479C56.2283 46.8479 53.764 46.4489 51.4062 45.663C49.1114 44.8971 47.8675 42.405 48.6283 40.095C49.3882 37.7859 51.8638 36.5346 54.1586 37.2986C55.6266 37.7887 57.1652 38.037 58.7321 38.037C66.7361 38.037 73.2484 31.4813 73.2484 23.424C73.2484 15.3667 66.7361 8.80995 58.7321 8.80995C50.7272 8.80995 44.2158 15.3667 44.2158 23.424C44.2158 25.0288 44.471 26.6033 44.9748 28.1038C45.7479 30.4092 44.519 32.9088 42.229 33.688C39.9436 34.4672 37.4558 33.2302 36.6827 30.9248C35.8729 28.5133 35.4623 25.99 35.4623 23.424C35.4623 10.5077 45.9013 1.14441e-05 58.7321 1.14441e-05C71.5629 1.14441e-05 82 10.5077 82 23.424C82 36.3403 71.5629 46.8479 58.7321 46.8479Z" fill="#E7401C"></path>
<path d="M46.4614 34.6612C46.4275 34.2451 46.3663 33.8337 46.3107 33.4214C46.2815 33.2043 46.2674 32.9853 46.2316 32.7692C46.0282 31.5161 45.7232 30.2819 45.3183 29.0752C44.5442 26.7698 42.0583 25.5309 39.7711 26.312C37.8068 26.9803 36.6269 28.915 36.819 30.9075C36.8228 30.9464 36.8228 30.9862 36.8284 31.025C36.8331 31.0649 36.8426 31.1047 36.8492 31.1445C36.8868 31.3947 36.9424 31.6459 37.0262 31.8943C37.53 33.3977 37.7861 34.9731 37.7861 36.5751C37.7861 44.6333 31.2737 51.1891 23.2688 51.1891C15.264 51.1891 8.75253 44.6333 8.75253 36.5751C8.75253 28.5178 15.264 21.962 23.2688 21.962C24.8593 21.962 26.4205 22.2189 27.9102 22.7241C30.2002 23.5024 32.6833 22.2616 33.4555 19.9562C34.2276 17.6509 32.996 15.1522 30.7059 14.3749C28.3132 13.5625 25.8113 13.1511 23.2688 13.1511C10.4381 13.1511 0 23.6597 0 36.5751C0 49.4867 10.4315 59.9924 23.2557 59.9991C23.2604 59.9991 23.2641 60 23.2688 60C35.6985 60 45.8832 50.1379 46.5075 37.7789C46.5283 37.3799 46.5377 36.9789 46.5377 36.5751C46.5377 35.9343 46.5122 35.2964 46.4614 34.6612Z" fill="#F9B223"></path>
</svg>